<?xml version="1.0" encoding="UTF-8"?>
<svg xmlns="http://www.w3.org/2000/svg" xmlns:xlink="http://www.w3.org/1999/xlink" version="1.1" viewBox="0 0 426.3 131.7">
  <!-- Generator: Adobe Illustrator 29.6.1, SVG Export Plug-In . SVG Version: 2.1.1 Build 9)  -->
  <defs>
    <style>
      .st0, .st1, .st2 {
        fill: none;
      }

      .st3 {
        font-family: Poppins-Medium, Poppins;
        font-size: 40.2px;
        font-weight: 500;
      }

      .st3, .st4 {
        fill: #fff;
      }

      .st4 {
        filter: url(#drop-shadow-1);
        opacity: .4;
      }

      .st5 {
        isolation: isolate;
      }

      .st1 {
        filter: url(#drop-shadow-3);
        stroke: url(#linear-gradient1);
      }

      .st1, .st2 {
        mix-blend-mode: lighten;
        opacity: .8;
        stroke-miterlimit: 10;
        stroke-width: 3px;
      }

      .st2 {
        filter: url(#drop-shadow-2);
        stroke: url(#linear-gradient);
      }

      .st6 {
        display: none;
      }

      .st7 {
        clip-path: url(#clippath);
      }
    </style>
    <clipPath id="clippath">
      <rect class="st0" x="30.5" y="21.7" width="364.6" height="88.4" rx="44.2" ry="44.2"/>
    </clipPath>
    <filter id="drop-shadow-1" x="15.9" y="7.2" width="419" height="142" filterUnits="userSpaceOnUse">
      <feOffset dx="12.1" dy="12.1"/>
      <feGaussianBlur result="blur" stdDeviation="8.6"/>
      <feFlood flood-color="#000" flood-opacity=".4"/>
      <feComposite in2="blur" operator="in"/>
      <feComposite in="SourceGraphic"/>
    </filter>
    <linearGradient id="linear-gradient" x1="28.1" y1="62.5" x2="397.2" y2="62.5" gradientUnits="userSpaceOnUse">
      <stop offset="0" stop-color="#fff"/>
      <stop offset="1" stop-color="#000"/>
    </linearGradient>
    <filter id="drop-shadow-2" x="14.9" y="6.2" width="422" height="144" filterUnits="userSpaceOnUse">
      <feOffset dx="12.1" dy="12.1"/>
      <feGaussianBlur result="blur1" stdDeviation="8.6"/>
      <feFlood flood-color="#000" flood-opacity=".4"/>
      <feComposite in2="blur1" operator="in"/>
      <feComposite in="SourceGraphic"/>
    </filter>
    <linearGradient id="linear-gradient1" x1="129.6" y1="1853.4" x2="498.6" y2="1853.4" gradientTransform="translate(-101.3 -1787.5)" xlink:href="#linear-gradient"/>
    <filter id="drop-shadow-3" x="13.9" y="6.2" width="422" height="144" filterUnits="userSpaceOnUse">
      <feOffset dx="12.1" dy="12.1"/>
      <feGaussianBlur result="blur2" stdDeviation="8.6"/>
      <feFlood flood-color="#000" flood-opacity=".4"/>
      <feComposite in2="blur2" operator="in"/>
      <feComposite in="SourceGraphic"/>
    </filter>
  </defs>
  <g class="st5">
    <g id="Layer_1">
      <g>
        <g class="st7">
          <g id="RpQIvR" class="st6">
            <image width="1468" height="858" transform="translate(-416.2 -507)" xlink:href="Pantalla 1 Obvio-1.png"/>
          </g>
          <rect class="st0" x="-42.1" y="-730.4" width="744.2" height="911.5" rx="94" ry="94"/>
        </g>
        <rect class="st4" x="30.5" y="21.7" width="366" height="88.4" rx="44.2" ry="44.2"/>
        <path class="st2" d="M74.7,21.7h277.6c24.4,0,44.2,19.8,44.2,44.2h0c0,24.4-19.8,44.2-44.2,44.2H74.7c-24.4,0-44.2-19.8-44.2-44.2h0c0-24.4,19.8-44.2,44.2-44.2Z"/>
        <path class="st1" d="M74,21.7h277.6c24.4,0,44.2,19.8,44.2,44.2h0c0,24.4-19.8,44.2-44.2,44.2H74c-24.4,0-44.2-19.8-44.2-44.2h0c0-24.4,19.8-44.2,44.2-44.2Z" transform="translate(425.6 131.7) rotate(180)"/>
        <text class="st3" transform="translate(74.5 80.6)"><tspan x="0" y="0">Obvio que sí!</tspan></text>
      </g>
    </g>
  </g>
</svg>