<?xml version="1.0" encoding="UTF-8"?>
<svg id="_3" data-name="3" xmlns="http://www.w3.org/2000/svg" viewBox="0 0 61.41 66.96">
  <defs>
    <style>
      .cls-1 {
        fill: #fff;
      }

      .cls-2 {
        fill: none;
        stroke: #fff;
        stroke-linecap: round;
        stroke-linejoin: round;
        stroke-width: 3.48px;
      }
    </style>
  </defs>
  <line class="cls-2" x1="2.41" y1="25.15" x2="58.57" y2="25.15"/>
  <path class="cls-1" d="M54.09,6.76h-6.32v-1.13c0-3.1-2.52-5.62-5.62-5.62s-5.62,2.52-5.62,5.62v1.13h-11.41v-1.13c0-3.1-2.52-5.62-5.62-5.62s-5.62,2.52-5.62,5.62v1.13h-6.54C3.29,6.76,0,10.04,0,14.08v45.56c0,4.04,3.29,7.32,7.32,7.32h46.76c4.04,0,7.32-3.29,7.32-7.32V14.08c0-4.04-3.29-7.32-7.32-7.32ZM40,10.23h0v-3.48h0v-1.13s0,0,0,0v-.04c0-1.16.94-2.1,2.1-2.1h.08c1.16,0,2.1.94,2.1,2.1v.04s0,0,0,0v1.13h0v3.48h0v2.12c0,1.18-.96,2.14-2.14,2.14s-2.15-.96-2.15-2.14v-2.12ZM17.35,12.32v-6.74c0-1.16.94-2.1,2.1-2.1h.08c1.16,0,2.1.94,2.1,2.1v6.77c0,1.18-.96,2.14-2.14,2.14s-2.14-.96-2.14-2.14v-.03ZM57.93,59.64c0,2.12-1.73,3.85-3.85,3.85H7.32c-2.12,0-3.85-1.73-3.85-3.85V14.08c0-2.12,1.73-3.85,3.85-3.85h6.54v2.12c0,3.1,2.52,5.62,5.62,5.62s5.62-2.52,5.62-5.62v-2.12h11.41v2.12c0,3.1,2.52,5.62,5.62,5.62s5.62-2.52,5.62-5.62v-2.12h6.32c2.12,0,3.85,1.73,3.85,3.85v45.56Z"/>
</svg>