<?xml version="1.0" encoding="UTF-8"?>
<svg xmlns="http://www.w3.org/2000/svg" xmlns:xlink="http://www.w3.org/1999/xlink" version="1.1" viewBox="0 0 458.3 189">
  <!-- Generator: Adobe Illustrator 29.6.1, SVG Export Plug-In . SVG Version: 2.1.1 Build 9)  -->
  <defs>
    <style>
      .st0 {
        filter: url(#drop-shadow-1);
        opacity: .4;
      }

      .st0, .st1, .st2 {
        fill: #fff;
      }

      .st3 {
        isolation: isolate;
      }

      .st4 {
        fill: none;
        filter: url(#drop-shadow-2);
        mix-blend-mode: lighten;
        opacity: .8;
        stroke: url(#linear-gradient);
        stroke-miterlimit: 10;
        stroke-width: 3px;
      }

      .st2 {
        font-family: Poppins-SemiBold, Poppins;
        font-size: 28.7px;
        font-weight: 600;
      }
    </style>
    <filter id="drop-shadow-1" x="14.7" y="17.1" width="452" height="186" filterUnits="userSpaceOnUse">
      <feOffset dx="15.3" dy="15.3"/>
      <feGaussianBlur result="blur" stdDeviation="10.9"/>
      <feFlood flood-color="#000" flood-opacity=".4"/>
      <feComposite in2="blur" operator="in"/>
      <feComposite in="SourceGraphic"/>
    </filter>
    <linearGradient id="linear-gradient" x1="30.8" y1="-91.9" x2="419.4" y2="-91.9" gradientUnits="userSpaceOnUse">
      <stop offset="0" stop-color="#fff"/>
      <stop offset="1" stop-color="#000" stop-opacity="0"/>
    </linearGradient>
    <filter id="drop-shadow-2" x="12.7" y="15.1" width="456" height="190" filterUnits="userSpaceOnUse">
      <feOffset dx="15.3" dy="15.3"/>
      <feGaussianBlur result="blur1" stdDeviation="10.9"/>
      <feFlood flood-color="#000" flood-opacity=".4"/>
      <feComposite in2="blur1" operator="in"/>
      <feComposite in="SourceGraphic"/>
    </filter>
  </defs>
  <g class="st3">
    <g id="Layer_1">
      <g>
        <rect class="st0" x="32.3" y="34.8" width="385.6" height="119.4" rx="30.9" ry="30.9"/>
        <rect class="st4" x="32.3" y="34.8" width="385.6" height="119.4" rx="30.9" ry="30.9"/>
        <text class="st2" transform="translate(153 107.8)"><tspan x="0" y="0">18.30 a 22.30 hs</tspan></text>
        <g>
          <path class="st1" d="M99.1,128.2h-1.4c-18.6,0-33.7-15.1-33.7-33.7s15.1-33.7,33.7-33.7h1.4c18.6,0,33.7,15.1,33.7,33.7s-15.1,33.7-33.7,33.7ZM97.8,64.7c-16.4,0-29.8,13.4-29.8,29.8s13.4,29.8,29.8,29.8h1.4c16.4,0,29.8-13.4,29.8-29.8s-13.4-29.8-29.8-29.8h-1.4Z"/>
          <path class="st1" d="M113.9,98.2h-15.5c-1.1,0-1.9-.9-1.9-1.9v-18.1c0-1.1.9-1.9,1.9-1.9s1.9.9,1.9,1.9v16.2h13.5c1.1,0,1.9.9,1.9,1.9s-.9,1.9-1.9,1.9Z"/>
        </g>
      </g>
    </g>
  </g>
</svg>