<?xml version="1.0" encoding="UTF-8"?>
<svg xmlns="http://www.w3.org/2000/svg" xmlns:xlink="http://www.w3.org/1999/xlink" version="1.1" viewBox="0 0 506 189">
  <!-- Generator: Adobe Illustrator 29.6.1, SVG Export Plug-In . SVG Version: 2.1.1 Build 9)  -->
  <defs>
    <style>
      .st0 {
        filter: url(#drop-shadow-1);
        opacity: .4;
      }

      .st0, .st1, .st2 {
        fill: #fff;
      }

      .st3 {
        isolation: isolate;
      }

      .st4 {
        stroke: #fff;
        stroke-linecap: round;
        stroke-linejoin: round;
        stroke-width: 3.5px;
      }

      .st4, .st5 {
        fill: none;
      }

      .st5 {
        filter: url(#drop-shadow-2);
        mix-blend-mode: lighten;
        opacity: .8;
        stroke: url(#linear-gradient);
        stroke-miterlimit: 10;
        stroke-width: 3px;
      }

      .st2 {
        font-family: Poppins-SemiBold, Poppins;
        font-size: 28.7px;
        font-weight: 600;
      }
    </style>
    <filter id="drop-shadow-1" x="16.5" y="17.1" width="504" height="186" filterUnits="userSpaceOnUse">
      <feOffset dx="15.3" dy="15.3"/>
      <feGaussianBlur result="blur" stdDeviation="10.9"/>
      <feFlood flood-color="#000" flood-opacity=".4"/>
      <feComposite in2="blur" operator="in"/>
      <feComposite in="SourceGraphic"/>
    </filter>
    <linearGradient id="linear-gradient" x1="33.4" y1="-100" x2="472.6" y2="-100" gradientUnits="userSpaceOnUse">
      <stop offset="0" stop-color="#fff"/>
      <stop offset="1" stop-color="#000" stop-opacity="0"/>
    </linearGradient>
    <filter id="drop-shadow-2" x="15.5" y="15.1" width="506" height="190" filterUnits="userSpaceOnUse">
      <feOffset dx="15.3" dy="15.3"/>
      <feGaussianBlur result="blur1" stdDeviation="10.9"/>
      <feFlood flood-color="#000" flood-opacity=".4"/>
      <feComposite in2="blur1" operator="in"/>
      <feComposite in="SourceGraphic"/>
    </filter>
  </defs>
  <g class="st3">
    <g id="Layer_1">
      <g>
        <rect class="st0" x="34.9" y="34.8" width="436.1" height="119.4" rx="31" ry="31"/>
        <rect class="st5" x="34.9" y="34.8" width="436.1" height="119.4" rx="31" ry="31"/>
        <text class="st2" transform="translate(166.8 105.7)"><tspan x="0" y="0">25 de Septiembre</tspan></text>
        <g>
          <line class="st4" x1="74.4" y1="86.2" x2="130.6" y2="86.2"/>
          <path class="st1" d="M126.1,67.8h-6.3v-1.1c0-3.1-2.5-5.6-5.6-5.6s-5.6,2.5-5.6,5.6v1.1h-11.4v-1.1c0-3.1-2.5-5.6-5.6-5.6s-5.6,2.5-5.6,5.6v1.1h-6.5c-4,0-7.3,3.3-7.3,7.3v45.6c0,4,3.3,7.3,7.3,7.3h46.8c4,0,7.3-3.3,7.3-7.3v-45.6c0-4-3.3-7.3-7.3-7.3ZM112,71.3h0v-3.5h0v-1.1s0,0,0,0h0c0-1.2.9-2.1,2.1-2.1h0c1.2,0,2.1.9,2.1,2.1h0s0,0,0,0v1.1h0v3.5h0v2.1c0,1.2-1,2.1-2.1,2.1s-2.1-1-2.1-2.1v-2.1ZM89.4,73.3v-6.7h0c0-1.2.9-2.1,2.1-2.1h0c1.2,0,2.1.9,2.1,2.1h0v6.7h0c0,1.2-1,2.2-2.1,2.2s-2.1-1-2.1-2.1h0ZM130,120.7c0,2.1-1.7,3.8-3.8,3.8h-46.8c-2.1,0-3.8-1.7-3.8-3.8v-45.6c0-2.1,1.7-3.8,3.8-3.8h6.5v2.1c0,3.1,2.5,5.6,5.6,5.6s5.6-2.5,5.6-5.6v-2.1h11.4v2.1c0,3.1,2.5,5.6,5.6,5.6s5.6-2.5,5.6-5.6v-2.1h6.3c2.1,0,3.8,1.7,3.8,3.8v45.6Z"/>
        </g>
      </g>
    </g>
  </g>
</svg>