<?xml version="1.0" encoding="UTF-8"?>
<svg xmlns="http://www.w3.org/2000/svg" xmlns:xlink="http://www.w3.org/1999/xlink" version="1.1" viewBox="0 0 582.8 189">
  <!-- Generator: Adobe Illustrator 29.6.1, SVG Export Plug-In . SVG Version: 2.1.1 Build 9)  -->
  <defs>
    <style>
      .st0 {
        filter: url(#drop-shadow-1);
        opacity: .4;
      }

      .st0, .st1, .st2 {
        fill: #fff;
      }

      .st3 {
        isolation: isolate;
      }

      .st4 {
        fill: none;
        filter: url(#drop-shadow-2);
        mix-blend-mode: lighten;
        opacity: .8;
        stroke: url(#linear-gradient);
        stroke-miterlimit: 10;
        stroke-width: 3.4px;
      }

      .st2 {
        font-family: Poppins-SemiBold, Poppins;
        font-size: 28.7px;
        font-weight: 600;
      }
    </style>
    <filter id="drop-shadow-1" x="30.3" y="15.3" width="557" height="194" filterUnits="userSpaceOnUse">
      <feOffset dx="17.1" dy="17.1"/>
      <feGaussianBlur result="blur" stdDeviation="12.2"/>
      <feFlood flood-color="#000" flood-opacity=".4"/>
      <feComposite in2="blur" operator="in"/>
      <feComposite in="SourceGraphic"/>
    </filter>
    <linearGradient id="linear-gradient" x1="37.5" y1="94.5" x2="523.3" y2="94.5" gradientUnits="userSpaceOnUse">
      <stop offset="0" stop-color="#fff"/>
      <stop offset="1" stop-color="#000" stop-opacity="0"/>
    </linearGradient>
    <filter id="drop-shadow-2" x="28.3" y="13.3" width="561" height="198" filterUnits="userSpaceOnUse">
      <feOffset dx="17.1" dy="17.1"/>
      <feGaussianBlur result="blur1" stdDeviation="12.2"/>
      <feFlood flood-color="#000" flood-opacity=".4"/>
      <feComposite in2="blur1" operator="in"/>
      <feComposite in="SourceGraphic"/>
    </filter>
  </defs>
  <g class="st3">
    <g id="Layer_1">
      <g>
        <rect class="st0" x="50.2" y="34.8" width="482.4" height="119.4" rx="34.6" ry="34.6"/>
        <rect class="st4" x="50.2" y="34.8" width="482.4" height="119.4" rx="34.6" ry="34.6"/>
        <text class="st2" transform="translate(161.9 107.8)"><tspan x="0" y="0">Santos Dumont 4080</tspan></text>
        <g>
          <path class="st1" d="M105.3,95.4c-4.9,0-8.8-4-8.8-8.8s4-8.8,8.8-8.8,8.8,4,8.8,8.8-4,8.8-8.8,8.8ZM105.3,80.5c-3.3,0-6,2.7-6,6s2.7,6,6,6,6-2.7,6-6-2.7-6-6-6Z"/>
          <path class="st1" d="M105.6,128.1c-.5,0-.9-.2-1.2-.6l-16.3-23.2c-4.3-6.6-5.4-9.4-6.4-14.9h0c-.2-.5-.3-.9-.1-1.3-.1-1.1-.2-2.2-.2-3.2,0-13.2,10.7-23.9,23.9-23.9s23.9,10.7,23.9,23.9-1.5,11.7-7,20.4l-15.5,22.3c-.3.4-.7.6-1.2.6h0ZM84.5,88.4c0,0,0,.1,0,.2,1,5.3,1.9,7.8,6,14.1l15.1,21.5,14.3-20.6c5.2-8.1,6.5-12,6.5-18.8,0-11.6-9.5-21.1-21.1-21.1s-21.1,9.5-21.1,21.1,0,2.3.3,3.4c0,0,0,.1,0,.2Z"/>
        </g>
      </g>
    </g>
  </g>
</svg>