<?xml version="1.0" encoding="UTF-8"?>
<svg id="_3" data-name="3" xmlns="http://www.w3.org/2000/svg" viewBox="0 0 68.71 67.36">
  <defs>
    <style>
      .cls-1 {
        fill: #fff;
      }
    </style>
  </defs>
  <path class="cls-1" d="M35.03,67.36h-1.35C15.11,67.36,0,52.25,0,33.68S15.11,0,33.68,0h1.35c18.57,0,33.68,15.11,33.68,33.68s-15.11,33.68-33.68,33.68ZM33.68,3.89C17.25,3.89,3.89,17.25,3.89,33.68s13.36,29.79,29.79,29.79h1.35c16.43,0,29.79-13.36,29.79-29.79S51.46,3.89,35.03,3.89h-1.35Z"/>
  <path class="cls-1" d="M49.84,37.33h-15.49c-1.07,0-1.95-.87-1.95-1.95v-18.11c0-1.07.87-1.95,1.95-1.95s1.95.87,1.95,1.95v16.16h13.54c1.07,0,1.95.87,1.95,1.95s-.87,1.95-1.95,1.95Z"/>
</svg>