<?xml version="1.0" encoding="UTF-8"?>
<svg id="_3" data-name="3" xmlns="http://www.w3.org/2000/svg" viewBox="0 0 47.83 67.2">
  <defs>
    <style>
      .cls-1 {
        fill: #fff;
      }
    </style>
  </defs>
  <path class="cls-1" d="M23.92,34.46c-4.88,0-8.85-3.97-8.85-8.85s3.97-8.85,8.85-8.85,8.85,3.97,8.85,8.85-3.97,8.85-8.85,8.85ZM23.92,19.61c-3.31,0-6.01,2.69-6.01,6.01s2.69,6.01,6.01,6.01,6.01-2.7,6.01-6.01-2.7-6.01-6.01-6.01Z"/>
  <path class="cls-1" d="M24.23,67.2c-.46,0-.9-.23-1.16-.61L6.8,43.34C2.49,36.75,1.44,33.92.43,28.44l-.08-.14c-.21-.35-.25-.78-.13-1.16-.15-1.08-.22-2.16-.22-3.22C0,10.73,10.73,0,23.92,0s23.92,10.73,23.92,23.92c0,7.36-1.5,11.74-6.97,20.39l-15.47,22.28c-.26.38-.7.61-1.16.61h0ZM3.14,27.51c.02.06.03.11.04.17.96,5.29,1.85,7.78,5.97,14.07l15.07,21.54,14.27-20.55c5.15-8.15,6.5-12.03,6.5-18.82,0-11.62-9.45-21.08-21.08-21.08S2.84,12.3,2.84,23.92c0,1.13.09,2.29.28,3.43,0,.06.01.11.02.17Z"/>
</svg>